<svg width="20" height="20" viewBox="0 0 20 20" fill="none" xmlns="http://www.w3.org/2000/svg">
<path d="M11.0881 15.2486L6.86439 16.6565C4.55988 17.4246 3.40762 17.8087 2.79939 17.2005C2.19116 16.5922 2.57524 15.44 3.34341 13.1355L4.75132 8.91173C5.38967 6.99669 5.70885 6.03917 6.46405 5.86089C7.21927 5.68261 7.93296 6.3963 9.36036 7.82368L12.1762 10.6395C13.6035 12.0669 14.3173 12.7806 14.1389 13.5358" stroke="#0C031B" stroke-width="1.5" stroke-linecap="round"/>
<path d="M10.1959 15.2883C10.1959 15.2883 9.56419 13.3873 9.56419 12.1292C9.56419 10.871 10.1959 8.97009 10.1959 8.97009M6.72099 16.2359C6.72099 16.2359 6.18739 13.9427 6.08919 12.4451C5.92693 9.97067 6.72099 6.12695 6.72099 6.12695" stroke="#0C031B" stroke-width="1.5" stroke-linecap="round"/>
<path d="M12.0911 8.33777L12.2111 7.7378C12.3321 7.13205 12.7686 6.63766 13.3546 6.44231C13.9407 6.24697 14.3771 5.75258 14.4983 5.14683L14.6183 4.54688" stroke="#0C031B" stroke-width="1.5" stroke-linecap="round"/>
<path d="M14.6409 10.2101L14.8183 10.3125C15.3659 10.6287 16.0543 10.559 16.5274 10.1395C16.9558 9.75953 17.566 9.6632 18.0906 9.89262L18.3335 9.99878" stroke="#0C031B" stroke-width="1.5" stroke-linecap="round"/>
<path d="M8.77934 2.5C8.49809 2.96005 8.56859 3.55287 8.94992 3.93414L9.03142 4.01571C9.35909 4.34334 9.47992 4.82466 9.34584 5.26818" stroke="#0C031B" stroke-width="1.5" stroke-linecap="round"/>
<path d="M11.3008 3.66284C11.4684 3.49529 11.5522 3.41151 11.649 3.3808C11.731 3.35484 11.8189 3.35484 11.9008 3.3808C11.9977 3.41151 12.0815 3.49529 12.2491 3.66284C12.4166 3.83038 12.5003 3.91415 12.5311 4.01102C12.5571 4.09295 12.5571 4.18091 12.5311 4.26284C12.5003 4.3597 12.4166 4.44348 12.2491 4.61103C12.0815 4.77857 11.9977 4.86234 11.9008 4.89305C11.8189 4.91903 11.731 4.91903 11.649 4.89305C11.5522 4.86234 11.4684 4.77857 11.3008 4.61103C11.1333 4.44348 11.0495 4.3597 11.0188 4.26284C10.9928 4.18091 10.9928 4.09295 11.0188 4.01102C11.0495 3.91415 11.1333 3.83038 11.3008 3.66284Z" fill="#0C031B"/>
<path d="M16.2235 6.22417C16.428 6.01967 16.5302 5.91743 16.6456 5.87299C16.7806 5.82098 16.9301 5.82098 17.0651 5.87299C17.1804 5.91743 17.2826 6.01967 17.4871 6.22417C17.6916 6.42867 17.7939 6.53091 17.8383 6.64625C17.8903 6.78123 17.8903 6.93072 17.8383 7.06571C17.7939 7.18106 17.6916 7.2833 17.4871 7.48779C17.2826 7.69228 17.1804 7.79453 17.0651 7.83897C16.9301 7.89098 16.7806 7.89098 16.6456 7.83897C16.5302 7.79453 16.428 7.69228 16.2235 7.48779C16.019 7.2833 15.9167 7.18106 15.8723 7.06571C15.8203 6.93072 15.8203 6.78123 15.8723 6.64625C15.9167 6.53091 16.019 6.42867 16.2235 6.22417Z" fill="#0C031B"/>
<path d="M5.77283 3.28326C5.94738 3.1087 6.23039 3.1087 6.40495 3.28326C6.57951 3.45782 6.57951 3.74084 6.40495 3.9154C6.23039 4.08995 5.94738 4.08995 5.77283 3.9154C5.59827 3.74084 5.59827 3.45782 5.77283 3.28326Z" fill="#0C031B"/>
<path d="M15.8819 12.7618C16.0564 12.5872 16.3394 12.5872 16.514 12.7618C16.6885 12.9363 16.6885 13.2193 16.514 13.3939C16.3394 13.5685 16.0564 13.5685 15.8819 13.3939C15.7074 13.2193 15.7074 12.9363 15.8819 12.7618Z" fill="#0C031B"/>
<path d="M14.5833 8.11725C14.7579 7.94269 15.0409 7.94269 15.2155 8.11725C15.39 8.29181 15.39 8.57479 15.2155 8.74937C15.0409 8.92395 14.7579 8.92395 14.5833 8.74937C14.4087 8.57479 14.4087 8.29181 14.5833 8.11725Z" fill="#0C031B"/>
</svg>
