<svg width="20" height="20" viewBox="0 0 20 20" fill="none" xmlns="http://www.w3.org/2000/svg">
<path d="M12.5002 3.33398V4.16732C12.5002 5.73867 12.5002 6.52434 12.9883 7.01249C13.4765 7.50065 14.2622 7.50065 15.8335 7.50065H17.0835M17.0835 7.50065L15.0002 5.83398M17.0835 7.50065L15.0002 9.16732" stroke="#0C031B" stroke-width="1.5" stroke-linecap="round" stroke-linejoin="round"/>
<path d="M3.12654 5.77208C3.10804 5.42739 2.81362 5.16297 2.46894 5.18147C2.12426 5.19997 1.85984 5.49439 1.87834 5.83907L3.12654 5.77208ZM3.93142 2.5774C3.6937 2.82768 3.70387 3.22327 3.95415 3.46099C4.20442 3.69871 4.60002 3.68853 4.83774 3.43826L3.93142 2.5774ZM8.88675 16.5109C9.179 16.6945 9.56483 16.6065 9.7485 16.3143C9.93217 16.022 9.84408 15.6362 9.55183 15.4525L8.88675 16.5109ZM12.5942 16.716C12.2563 16.6452 11.9251 16.8618 11.8543 17.1996C11.7836 17.5375 12.0001 17.8687 12.338 17.9395L12.5942 16.716ZM13.0372 12.9537L13.4167 12.5541L12.5103 11.6933L12.1308 12.0929L13.0372 12.9537ZM14.6656 12.3859L16.2577 13.3023L16.8812 12.219L15.2892 11.3025L14.6656 12.3859ZM16.5649 15.2022L15.3812 16.4485L16.2875 17.3094L17.4712 16.0631L16.5649 15.2022ZM6.966 13.2995C3.73589 9.89879 3.19407 7.03026 3.12654 5.77208L1.87834 5.83907C1.96105 7.38009 2.61537 10.5342 6.05967 14.1604L6.966 13.2995ZM8.11212 7.76862L8.35117 7.51698L7.44481 6.65613L7.20579 6.90776L8.11212 7.76862ZM8.53892 4.38406L7.48807 2.89782L6.46742 3.61946L7.51824 5.10569L8.53892 4.38406ZM7.65896 7.33818C7.20579 6.90776 7.20522 6.90837 7.20463 6.90898C7.20444 6.90919 7.20386 6.90981 7.20346 6.91023C7.20267 6.91108 7.20186 6.91193 7.20104 6.91282C7.1994 6.91458 7.1977 6.91643 7.19596 6.91835C7.19246 6.92219 7.18875 6.92635 7.18485 6.93083C7.17706 6.9398 7.16849 6.95005 7.15933 6.96163C7.14102 6.98478 7.12029 7.01322 7.09855 7.04719C7.05496 7.11533 7.00767 7.20505 6.96764 7.31757C6.88622 7.54638 6.84185 7.84938 6.89729 8.22777C7.00622 8.97121 7.49335 9.97096 8.76617 11.311L9.6725 10.4501C8.48275 9.19754 8.18971 8.42613 8.13408 8.04655C8.10726 7.86343 8.13452 7.76693 8.1453 7.73663C8.15136 7.7196 8.15532 7.71487 8.15145 7.72093C8.14957 7.72387 8.14582 7.72938 8.13952 7.73735C8.13636 7.74133 8.13257 7.74593 8.12803 7.75115C8.12577 7.75375 8.12332 7.75651 8.12067 7.75943C8.11934 7.76088 8.11797 7.76238 8.11654 7.76391C8.11583 7.76468 8.11511 7.76545 8.11437 7.76623C8.114 7.76663 8.11343 7.76723 8.11325 7.76742C8.11268 7.76802 8.11212 7.76862 7.65896 7.33818ZM8.76617 11.311C10.0352 12.647 10.9937 13.1723 11.7249 13.291C12.1001 13.352 12.4038 13.3033 12.6338 13.2126C12.7462 13.1683 12.8352 13.1162 12.902 13.0689C12.9352 13.0452 12.963 13.0228 12.9854 13.0032C12.9966 12.9934 13.0065 12.9842 13.0151 12.9759C13.0194 12.9718 13.0233 12.9678 13.027 12.9641C13.0288 12.9623 13.0307 12.9605 13.0323 12.9587C13.0332 12.9579 13.034 12.957 13.0347 12.9562C13.0352 12.9558 13.0357 12.9551 13.036 12.955C13.0366 12.9543 13.0372 12.9537 12.584 12.5233C12.1308 12.0929 12.1314 12.0923 12.1319 12.0917C12.1322 12.0915 12.1327 12.0909 12.1331 12.0905C12.1338 12.0897 12.1346 12.089 12.1352 12.0882C12.1367 12.0867 12.1382 12.0852 12.1396 12.0838C12.1423 12.081 12.145 12.0784 12.1475 12.076C12.1526 12.0711 12.1571 12.067 12.1611 12.0635C12.1691 12.0565 12.175 12.052 12.1788 12.0493C12.1866 12.0437 12.1858 12.0456 12.1752 12.0498C12.1591 12.0561 12.0834 12.0829 11.9252 12.0572C11.5898 12.0027 10.8659 11.7066 9.6725 10.4501L8.76617 11.311ZM7.48807 2.89782C6.64342 1.70317 4.95323 1.50162 3.93142 2.5774L4.83774 3.43826C5.27343 2.97955 6.04046 3.01558 6.46742 3.61946L7.48807 2.89782ZM15.3812 16.4485C15.1486 16.6934 14.9053 16.8245 14.6688 16.8479L14.7917 18.0919C15.4142 18.0304 15.918 17.6984 16.2875 17.3094L15.3812 16.4485ZM8.35117 7.51698C9.15742 6.66808 9.2145 5.33961 8.53892 4.38406L7.51824 5.10569C7.87003 5.60325 7.81608 6.26523 7.44481 6.65613L8.35117 7.51698ZM16.2577 13.3023C16.9417 13.696 17.0756 14.6646 16.5649 15.2022L17.4712 16.0631C18.5587 14.9182 18.242 13.0022 16.8812 12.219L16.2577 13.3023ZM13.4167 12.5541C13.7378 12.216 14.2383 12.14 14.6656 12.3859L15.2892 11.3025C14.3737 10.7756 13.2385 10.9267 12.5103 11.6933L13.4167 12.5541ZM9.55183 15.4525C8.73208 14.9374 7.85957 14.2403 6.966 13.2995L6.05967 14.1604C7.02137 15.1729 7.97414 15.9374 8.88675 16.5109L9.55183 15.4525ZM14.6688 16.8479C14.2134 16.8929 13.4927 16.9041 12.5942 16.716L12.338 17.9395C13.3784 18.1573 14.2285 18.1475 14.7917 18.0919L14.6688 16.8479Z" fill="#0C031B"/>
</svg>
