<svg width="20" height="20" viewBox="0 0 20 20" fill="none" xmlns="http://www.w3.org/2000/svg">
<g clip-path="url(#clip0_2321_22638)">
<path d="M18.3334 18.334H1.66669" stroke="#0C031B" stroke-width="1.5" stroke-linecap="round"/>
<path d="M14.1666 18.3327V4.99935C14.1666 3.428 14.1666 2.64232 13.6785 2.15417C13.1903 1.66602 12.4046 1.66602 10.8333 1.66602H9.16665C7.5953 1.66602 6.80962 1.66602 6.32147 2.15417C5.83331 2.64232 5.83331 3.428 5.83331 4.99935V18.3327" stroke="#0C031B" stroke-width="1.5"/>
<path d="M16.875 9.58268C16.875 9.92785 17.1548 10.2077 17.5 10.2077C17.8451 10.2077 18.125 9.92785 18.125 9.58268H16.875ZM18.125 12.916C18.125 12.5708 17.8451 12.291 17.5 12.291C17.1548 12.291 16.875 12.5708 16.875 12.916H18.125ZM14.5833 7.29102C15.1815 7.29102 15.5831 7.29177 15.8893 7.32292C16.185 7.353 16.3216 7.40618 16.4121 7.46657L17.1065 6.42723C16.7765 6.20673 16.4104 6.11947 16.0158 6.07933C15.6316 6.04026 15.1555 6.04102 14.5833 6.04102V7.29102ZM18.125 9.58268C18.125 9.01052 18.1257 8.53435 18.0866 8.1502C18.0466 7.75564 17.9592 7.3895 17.7387 7.0595L16.6994 7.75397C16.7598 7.84434 16.813 7.98098 16.8431 8.27671C16.8742 8.58285 16.875 8.98452 16.875 9.58268H18.125ZM16.4121 7.46657C16.5258 7.54257 16.6234 7.64022 16.6994 7.75397L17.7387 7.0595C17.5716 6.80928 17.3567 6.59442 17.1065 6.42723L16.4121 7.46657ZM16.875 12.916V18.3327H18.125V12.916H16.875Z" fill="#0C031B"/>
<path d="M3.125 16.666C3.125 16.3208 2.84518 16.041 2.5 16.041C2.15483 16.041 1.875 16.3208 1.875 16.666H3.125ZM1.875 13.3327C1.875 13.6778 2.15483 13.9577 2.5 13.9577C2.84518 13.9577 3.125 13.6778 3.125 13.3327H1.875ZM5.41667 6.04102C4.84448 6.04102 4.3683 6.04026 3.98418 6.07933C3.58963 6.11947 3.22348 6.20673 2.89348 6.42723L3.58795 7.46657C3.67833 7.40618 3.81497 7.353 4.11069 7.32292C4.41686 7.29177 4.81847 7.29102 5.41667 7.29102V6.04102ZM3.125 9.58268C3.125 8.98452 3.12576 8.58285 3.1569 8.27671C3.18698 7.98098 3.24017 7.84434 3.30055 7.75397L2.26122 7.0595C2.04072 7.3895 1.95346 7.75564 1.91332 8.1502C1.87424 8.53435 1.875 9.01052 1.875 9.58268H3.125ZM2.89348 6.42723C2.64326 6.59442 2.42841 6.80928 2.26122 7.0595L3.30055 7.75397C3.37655 7.64022 3.47421 7.54257 3.58795 7.46657L2.89348 6.42723ZM1.875 16.666V18.3327H3.125V16.666H1.875ZM1.875 9.58268V13.3327H3.125V9.58268H1.875Z" fill="#0C031B"/>
<path d="M10 18.334V15.834" stroke="#0C031B" stroke-width="1.5" stroke-linecap="round"/>
<path d="M8.33331 4.16602H11.6666" stroke="#0C031B" stroke-width="1.5" stroke-linecap="round"/>
<path d="M8.33331 11.666H8.74998M11.6666 11.666H10.4166" stroke="#0C031B" stroke-width="1.5" stroke-linecap="round"/>
<path d="M11.6666 6.66602H11.25M8.33331 6.66602H9.58331" stroke="#0C031B" stroke-width="1.5" stroke-linecap="round"/>
<path d="M8.33331 9.16602H11.6666" stroke="#0C031B" stroke-width="1.5" stroke-linecap="round"/>
</g>
<defs>
<clipPath id="clip0_2321_22638">
<rect width="20" height="20" fill="white"/>
</clipPath>
</defs>
</svg>
