<svg width="20" height="20" viewBox="0 0 20 20" fill="none" xmlns="http://www.w3.org/2000/svg">
<g clip-path="url(#clip0_2321_22663)">
<path d="M10.8533 12.1339C8.9285 12.9038 7.96608 13.2888 7.41637 12.9152C7.28603 12.8267 7.17362 12.7142 7.08505 12.5839C6.7115 12.0342 7.09646 11.0718 7.86639 9.14699C8.03061 8.7364 8.11272 8.53115 8.25395 8.37007C8.28993 8.32906 8.32857 8.29042 8.36958 8.25444C8.53067 8.11321 8.73591 8.0311 9.1465 7.86687C11.0713 7.09695 12.0337 6.71199 12.5834 7.08554C12.7137 7.1741 12.8262 7.28652 12.9147 7.41685C13.2883 7.96657 12.9033 8.92899 12.1334 10.8538C11.9692 11.2643 11.8871 11.4697 11.7458 11.6307C11.7098 11.6717 11.6712 11.7103 11.6302 11.7463C11.4692 11.8876 11.2638 11.9697 10.8533 12.1339Z" stroke="#0C031B" stroke-width="1.5"/>
<path d="M5.83335 2.78087C7.05908 2.07182 8.48219 1.66602 10 1.66602C14.6024 1.66602 18.3334 5.39697 18.3334 9.99935C18.3334 14.6017 14.6024 18.3327 10 18.3327C5.39765 18.3327 1.66669 14.6017 1.66669 9.99935C1.66669 8.48152 2.0725 7.05841 2.78154 5.83268" stroke="#0C031B" stroke-width="1.5" stroke-linecap="round"/>
</g>
<defs>
<clipPath id="clip0_2321_22663">
<rect width="20" height="20" fill="white"/>
</clipPath>
</defs>
</svg>
