<svg width="20" height="20" viewBox="0 0 20 20" fill="none" xmlns="http://www.w3.org/2000/svg">
<g clip-path="url(#clip0_2321_22769)">
<path d="M9.375 14.9993C9.375 15.3445 9.65483 15.6243 10 15.6243C10.3452 15.6243 10.625 15.3445 10.625 14.9993H9.375ZM15 6.66601L15.4419 7.10795C15.686 6.86388 15.686 6.46815 15.4419 6.22407L15 6.66601ZM14.1919 4.97407C13.9478 4.73 13.5522 4.73 13.3081 4.97407C13.064 5.21815 13.064 5.61388 13.3081 5.85796L14.1919 4.97407ZM13.3081 7.47407C13.064 7.71815 13.064 8.11388 13.3081 8.35793C13.5522 8.60201 13.9478 8.60201 14.1919 8.35793L13.3081 7.47407ZM10.625 14.9993V9.99935H9.375V14.9993H10.625ZM13.3333 7.29101H15V6.04101H13.3333V7.29101ZM15.4419 6.22407L14.1919 4.97407L13.3081 5.85796L14.5581 7.10795L15.4419 6.22407ZM14.5581 6.22407L13.3081 7.47407L14.1919 8.35793L15.4419 7.10795L14.5581 6.22407ZM10.625 9.99935C10.625 8.5036 11.8376 7.29101 13.3333 7.29101V6.04101C11.1472 6.04101 9.375 7.81322 9.375 9.99935H10.625Z" fill="#0C031B"/>
<path d="M9.375 14.9993C9.375 15.3445 9.65483 15.6243 10 15.6243C10.3452 15.6243 10.625 15.3445 10.625 14.9993H9.375ZM5 6.66601L4.55806 6.22407C4.31398 6.46815 4.31398 6.86388 4.55806 7.10795L5 6.66601ZM6.69194 5.85796C6.93601 5.61388 6.93601 5.21815 6.69194 4.97407C6.44786 4.73 6.05213 4.73 5.80806 4.97407L6.69194 5.85796ZM5.80806 8.35793C6.05213 8.60201 6.44786 8.60201 6.69194 8.35793C6.93601 8.11388 6.93601 7.71815 6.69194 7.47407L5.80806 8.35793ZM10.625 14.9993V9.99935H9.375V14.9993H10.625ZM6.66666 6.04101H5V7.29101H6.66666V6.04101ZM5.44194 7.10795L6.69194 5.85796L5.80806 4.97407L4.55806 6.22407L5.44194 7.10795ZM4.55806 7.10795L5.80806 8.35793L6.69194 7.47407L5.44194 6.22407L4.55806 7.10795ZM10.625 9.99935C10.625 7.81322 8.85283 6.04101 6.66666 6.04101V7.29101C8.16244 7.29101 9.375 8.5036 9.375 9.99935H10.625Z" fill="#0C031B"/>
<path d="M18.3333 9.99935C18.3333 13.9277 18.3333 15.8919 17.1129 17.1123C15.8926 18.3327 13.9283 18.3327 10 18.3327C6.07163 18.3327 4.10745 18.3327 2.88706 17.1123C1.66667 15.8919 1.66667 13.9277 1.66667 9.99935C1.66667 6.07097 1.66667 4.10679 2.88706 2.88641C4.10745 1.66602 6.07163 1.66602 10 1.66602C13.9283 1.66602 15.8926 1.66602 17.1129 2.88641C17.9244 3.69786 18.1963 4.83814 18.2874 6.66602" stroke="#0C031B" stroke-width="1.5" stroke-linecap="round"/>
</g>
<defs>
<clipPath id="clip0_2321_22769">
<rect width="20" height="20" fill="white"/>
</clipPath>
</defs>
</svg>
