<svg width="20" height="20" viewBox="0 0 20 20" fill="none" xmlns="http://www.w3.org/2000/svg">
<g clip-path="url(#clip0_2321_22563)">
<path d="M11.6666 5.83268C11.6666 6.75316 10.9205 7.49935 9.99998 7.49935C9.07948 7.49935 8.33331 6.75316 8.33331 5.83268C8.33331 4.91221 9.07948 4.16602 9.99998 4.16602C10.9205 4.16602 11.6666 4.91221 11.6666 5.83268Z" stroke="#0C031B" stroke-width="1.5"/>
<path d="M15 8.33398C15 8.33398 12.0522 9.58398 10 9.58398C7.94772 9.58398 5 8.33398 5 8.33398" stroke="#0C031B" stroke-width="1.5" stroke-linecap="round"/>
<path d="M10 10V11.2102M10 11.2102C10 11.6896 10.1378 12.1588 10.3971 12.5621L12.5 15.8333M10 11.2102C10 11.6896 9.86217 12.1588 9.60292 12.5621L7.5 15.8333" stroke="#0C031B" stroke-width="1.5" stroke-linecap="round"/>
<path d="M5.83335 2.78087C7.05908 2.07182 8.48219 1.66602 10 1.66602C14.6024 1.66602 18.3334 5.39697 18.3334 9.99935C18.3334 14.6017 14.6024 18.3327 10 18.3327C5.39765 18.3327 1.66669 14.6017 1.66669 9.99935C1.66669 8.48152 2.0725 7.05841 2.78154 5.83268" stroke="#0C031B" stroke-width="1.5" stroke-linecap="round"/>
</g>
<defs>
<clipPath id="clip0_2321_22563">
<rect width="20" height="20" fill="white"/>
</clipPath>
</defs>
</svg>
