<svg width="20" height="20" viewBox="0 0 20 20" fill="none" xmlns="http://www.w3.org/2000/svg">
<path d="M3.39533 2.49504C3.44386 1.63663 3.64891 1.26334 4.23693 0.963586C4.86964 0.640952 5.86755 0.791096 7.04178 1.38571C7.54755 1.64194 7.59905 1.64716 8.48541 1.53352C9.66358 1.38241 11.1803 1.38294 12.2677 1.5349C13.0901 1.64982 13.1441 1.64408 13.6511 1.38731C15.3178 0.543269 16.6337 0.598495 17.1102 1.53245C17.3481 1.99864 17.3922 3.20829 17.2078 4.20599C17.1056 4.75911 17.1164 4.82817 17.3627 5.19114C19.0958 7.74508 17.8471 11.8849 14.8773 13.4298C14.6501 13.548 14.4586 13.6212 14.3025 13.6808C13.8232 13.8638 13.6777 13.9194 13.8539 14.7617C13.9387 15.1669 14.0409 16.1742 14.0811 17.0004C14.1537 18.4937 14.1526 18.5041 13.8907 18.8088C13.5342 19.2232 13.0203 19.2302 12.6722 18.8254C12.4451 18.5614 12.4229 18.4367 12.4229 17.4181C12.4229 15.9129 12.2579 14.9124 11.8681 14.055C11.4045 13.0348 11.7482 12.6544 12.8083 12.4264C14.2819 12.1094 15.4328 11.2 16.0743 9.8457C16.6842 8.55837 16.7762 6.77938 15.6735 5.69744C15.3599 5.32479 15.3381 4.98725 15.562 3.96944C15.6457 3.58904 15.7158 3.09827 15.7179 2.87874C15.7211 2.53206 15.6895 2.47971 15.4766 2.47971C15.3418 2.47971 14.827 2.67572 14.3327 2.91524L13.5437 3.29766C13.4719 3.33242 13.3917 3.34579 13.3125 3.3367C11.3062 3.10642 9.39991 3.10286 7.38385 3.3376C7.30438 3.34685 7.22377 3.33349 7.15179 3.29855L6.36321 2.91589C5.86882 2.67593 5.35401 2.47971 5.21931 2.47971C4.90784 2.47971 4.90316 2.70966 5.18706 4.07585C5.36048 4.91023 5.47718 5.09614 4.97584 5.7633C4.22437 6.76334 4.03666 8.00514 4.43964 9.30987C4.94753 10.954 6.19125 12.0648 7.93977 12.4354C8.99383 12.6588 9.26933 12.9503 8.86683 14.159C8.55 15.1101 8.34966 15.3553 7.88922 15.3553C7.2697 15.3553 6.88163 14.8186 7.0952 14.257C7.18926 14.0095 7.16128 13.9831 6.58092 13.7715C4.80931 13.1255 3.45428 11.6778 2.83476 9.76879C2.35592 8.2934 2.56661 6.37303 3.33479 5.21231C3.59634 4.8171 3.60039 4.78359 3.47833 4.02701C3.40927 3.59872 3.37192 2.90939 3.39533 2.49504Z" fill="#0C031B"/>
<path d="M2.77669 13.2872C2.5214 12.9043 2.004 12.8008 1.62106 13.0561C1.23813 13.3113 1.13465 13.8288 1.38994 14.2117C1.57841 14.4944 1.80389 14.7267 1.99536 14.9181C2.03066 14.9534 2.06496 14.9875 2.09845 15.0208C2.25885 15.1801 2.40046 15.3208 2.5427 15.4878C2.85729 15.857 3.17113 16.3543 3.3495 17.2462C3.42895 17.6434 3.71449 17.8574 3.8727 17.9509C4.04429 18.0523 4.23176 18.112 4.38604 18.1509C4.70163 18.2305 5.08474 18.2718 5.44832 18.2959C5.84745 18.3224 6.27993 18.331 6.66665 18.3333C6.66694 18.7933 7.03992 19.1661 7.49998 19.1661C7.96022 19.1661 8.33331 18.793 8.33331 18.3328V17.4994C8.33331 17.0392 7.96022 16.6661 7.49998 16.6661C7.42142 16.6661 7.33643 16.6663 7.2464 16.6667C6.75735 16.6682 6.11989 16.6701 5.55848 16.6329C5.28775 16.615 5.0652 16.5896 4.902 16.5585C4.65069 15.5719 4.24468 14.9155 3.81144 14.4069C3.61992 14.1822 3.4216 13.9855 3.2603 13.8255C3.2301 13.7956 3.2012 13.7669 3.17387 13.7396C2.98775 13.5535 2.866 13.4212 2.77669 13.2872Z" fill="#0C031B"/>
</svg>
