<svg width="20" height="20" viewBox="0 0 20 20" fill="none" xmlns="http://www.w3.org/2000/svg">
<path fill-rule="evenodd" clip-rule="evenodd" d="M3.96634 2.01097C4.34297 1.06443 5.69919 1.11382 6.00596 2.08526L7.45287 6.66715H12.5472L13.9941 2.08526C14.3008 1.11383 15.6571 1.06443 16.0338 2.01097L18.0954 7.19238L18.8924 9.19534C19.151 9.84509 18.9763 10.5873 18.4552 11.0536L10.5557 18.1215C10.2393 18.4046 9.76076 18.4046 9.44434 18.1215L1.5449 11.0536C1.02371 10.5873 0.849088 9.84509 1.10765 9.19534L1.90462 7.19238L3.96634 2.01097ZM12.0208 8.33381H7.97919L10 14.7332L12.0208 8.33381ZM8.28979 14.8521L6.2314 8.33381H3.2442L2.65622 9.81151L8.28979 14.8521ZM3.90738 6.66715H5.70508L4.90965 4.14828L3.90738 6.66715ZM11.7103 14.8521L13.7687 8.33381H16.7558L17.3438 9.81151L11.7103 14.8521ZM16.0927 6.66715H14.295L15.0904 4.14828L16.0927 6.66715Z" fill="#0C031B"/>
</svg>
