<svg width="20" height="20" viewBox="0 0 20 20" fill="none" xmlns="http://www.w3.org/2000/svg">
<path d="M18.3333 10.0007C18.3333 13.1433 18.3333 14.7147 17.357 15.691C16.3808 16.6673 14.8093 16.6673 11.6667 16.6673H8.33334C5.19064 16.6673 3.6193 16.6673 2.64298 15.691C1.66667 14.7147 1.66667 13.1433 1.66667 10.0007C1.66667 6.85795 1.66667 5.28661 2.64298 4.31029C3.6193 3.33398 5.19064 3.33398 8.33334 3.33398H11.6667C14.8093 3.33398 16.3808 3.33398 17.357 4.31029C17.9013 4.85461 18.1422 5.58389 18.2488 6.66732" stroke="#0C031B" stroke-width="1.5" stroke-linecap="round"/>
<path d="M15 6.66602L13.2009 8.16525C11.6704 9.44068 10.9051 10.0784 10 10.0784C9.45892 10.0784 8.96783 9.85052 8.33333 9.39468M5 6.66602L5.75 7.29102L6.5 7.91602" stroke="#0C031B" stroke-width="1.5" stroke-linecap="round"/>
</svg>
