<svg width="20" height="20" viewBox="0 0 20 20" fill="none" xmlns="http://www.w3.org/2000/svg">
<g clip-path="url(#clip0_2321_22720)">
<path d="M10 10C11.3807 10 12.5 8.88071 12.5 7.5C12.5 6.11929 11.3807 5 10 5C8.61929 5 7.5 6.11929 7.5 7.5C7.5 8.88071 8.61929 10 10 10Z" stroke="#0C031B" stroke-width="1.5"/>
<path d="M14.9743 16.6667C14.8417 14.2571 14.1039 12.5 9.99992 12.5C5.89601 12.5 5.15826 14.2571 5.02563 16.6667" stroke="#0C031B" stroke-width="1.5" stroke-linecap="round"/>
<path d="M5.83334 2.78087C7.05906 2.07182 8.48217 1.66602 10 1.66602C14.6023 1.66602 18.3333 5.39697 18.3333 9.99935C18.3333 14.6017 14.6023 18.3327 10 18.3327C5.39763 18.3327 1.66667 14.6017 1.66667 9.99935C1.66667 8.48152 2.07248 7.05841 2.78152 5.83268" stroke="#0C031B" stroke-width="1.5" stroke-linecap="round"/>
</g>
<defs>
<clipPath id="clip0_2321_22720">
<rect width="20" height="20" fill="white"/>
</clipPath>
</defs>
</svg>
