<svg width="20" height="20" viewBox="0 0 20 20" fill="none" xmlns="http://www.w3.org/2000/svg">
<path d="M3.3335 9.99935C3.3335 11.1499 4.26624 12.0827 5.41683 12.0827C6.56742 12.0827 7.50016 11.1499 7.50016 9.99935C7.50016 8.84877 6.56742 7.91602 5.41683 7.91602" stroke="#0C031B" stroke-width="1.5" stroke-linecap="round"/>
<path d="M11.6667 5.41602L7.5 8.33268" stroke="#0C031B" stroke-width="1.5" stroke-linecap="round"/>
<path d="M11.6667 14.5827L7.5 11.666" stroke="#0C031B" stroke-width="1.5" stroke-linecap="round"/>
<path d="M13.7498 17.5007C14.9004 17.5007 15.8332 16.5679 15.8332 15.4173C15.8332 14.2667 14.9004 13.334 13.7498 13.334C12.5993 13.334 11.6665 14.2667 11.6665 15.4173" stroke="#0C031B" stroke-width="1.5" stroke-linecap="round"/>
<path d="M15.5544 5.62535C14.9791 6.62179 13.705 6.9632 12.7085 6.3879C11.7121 5.81261 11.3707 4.53846 11.946 3.54201C12.5212 2.54557 13.7954 2.20416 14.7918 2.77946" stroke="#0C031B" stroke-width="1.5" stroke-linecap="round"/>
</svg>
