<svg width="20" height="20" viewBox="0 0 20 20" fill="none" xmlns="http://www.w3.org/2000/svg">
<g clip-path="url(#clip0_3319_13787)">
<path d="M8.3335 13.334H10.0002" stroke="#0C031B" stroke-width="1.5" stroke-linecap="round"/>
<path d="M11.6667 10.416C11.6667 11.1063 11.2936 11.666 10.8333 11.666C10.3731 11.666 10 11.1063 10 10.416C10 9.72568 10.3731 9.16602 10.8333 9.16602C11.2936 9.16602 11.6667 9.72568 11.6667 10.416Z" fill="#0C031B"/>
<path d="M7.49984 11.666C7.96007 11.666 8.33317 11.1064 8.33317 10.416C8.33317 9.72566 7.96007 9.16602 7.49984 9.16602C7.0396 9.16602 6.6665 9.72566 6.6665 10.416C6.6665 11.1064 7.0396 11.666 7.49984 11.666Z" fill="#0C031B"/>
<path d="M14.1667 5.83398L12.5 7.50065" stroke="#0C031B" stroke-width="1.5" stroke-linecap="round"/>
<path d="M14.9842 1.96032C15.139 1.56792 15.6943 1.56792 15.8491 1.96032L16.3944 3.34303C16.4416 3.46283 16.5365 3.55767 16.6563 3.60492L18.039 4.15025C18.4314 4.30501 18.4314 4.86036 18.039 5.01512L16.6563 5.56045C16.5365 5.6077 16.4416 5.70253 16.3944 5.82233L15.8491 7.20505C15.6943 7.59745 15.139 7.59745 14.9842 7.20505L14.4389 5.82233C14.3916 5.70253 14.2968 5.6077 14.177 5.56045L12.7943 5.01512C12.4019 4.86036 12.4019 4.30501 12.7943 4.15025L14.177 3.60492C14.2968 3.55767 14.3916 3.46283 14.4389 3.34303L14.9842 1.96032Z" stroke="#0C031B" stroke-width="1.5"/>
<path d="M4.7915 6.67013C5.7108 6.13834 6.7781 5.83398 7.9165 5.83398C11.3683 5.83398 14.1665 8.63223 14.1665 12.084C14.1665 15.5357 11.3683 18.334 7.9165 18.334C4.46472 18.334 1.6665 15.5357 1.6665 12.084C1.6665 10.9456 1.97086 9.87832 2.50265 8.95898" stroke="#0C031B" stroke-width="1.5" stroke-linecap="round"/>
</g>
<defs>
<clipPath id="clip0_3319_13787">
<rect width="20" height="20" fill="white"/>
</clipPath>
</defs>
</svg>
