<svg width="241" height="239" viewBox="0 0 241 239" fill="none" xmlns="http://www.w3.org/2000/svg">
<path d="M164.717 27.6436C187.389 28.8003 238.96 36.5751 250.083 66.1038V239.844H42.5674C30.3061 230.821 17.1195 183.164 34.4703 151.413C51.8212 119.662 44.8673 103.795 34.4703 88.4872C24.0733 73.1795 13.4196 68.3689 13.418 57.487C13.4163 46.6051 34.4703 37.8227 68.2466 34.5839C102.023 31.3451 142.045 26.4868 164.717 27.6436Z" fill="#82DDFF" fill-opacity="0.8" stroke="#82DDFF"/>
<path d="M163.098 49.9097C185.77 40.6559 236.294 77.6831 250.083 91.5517V240.306H102.948C89.5304 240.306 70.7914 216.015 71.2541 197.045C71.7168 178.075 98.7339 147.129 98.9783 132.989C99.2227 118.85 74.6871 102.683 69.1349 93.8921C63.5826 85.1011 72.4353 68.0178 98.9783 59.4218C120.957 58.3979 140.426 59.1635 163.098 49.9097Z" fill="#6A9DFF" stroke="#6A9DFF"/>
<g opacity="0.6">
<path d="M212.356 162.167C211.537 162.43 210.603 162.245 209.916 161.602L135.909 91.7946C134.89 90.831 134.813 89.2067 135.736 88.1617C136.664 87.1208 138.235 87.0588 139.259 88.0208L213.266 157.828C214.285 158.79 214.363 160.414 213.44 161.459C213.133 161.8 212.759 162.037 212.356 162.167Z" fill="#E9DFFB"/>
<path d="M181.571 172.056L52.8199 213.414C51.9659 213.688 51.0319 213.478 50.3705 212.855C49.7051 212.238 49.4143 211.306 49.6023 210.412L85.1296 42.9235C85.3216 42.0306 85.9648 41.3095 86.8188 41.0352L119.597 30.5062C120.918 30.0819 122.328 30.8324 122.75 32.1845C123.172 33.5349 122.444 34.9721 121.123 35.3964L89.7278 45.4814L55.4261 207.194L180.043 167.164C181.363 166.74 182.773 167.491 183.194 168.841C183.617 170.195 182.89 171.632 181.571 172.056Z" fill="#E9DFFB"/>
<path d="M181.568 172.057L52.8192 213.414C51.4982 213.838 50.0871 213.085 49.6638 211.729C49.2411 210.375 49.9674 208.935 51.2884 208.511L175.902 168.482L128.851 124.373C127.827 123.413 127.751 121.788 128.682 120.74C129.615 119.697 131.201 119.63 132.231 120.591L182.493 167.714C183.155 168.338 183.446 169.273 183.253 170.166C183.063 171.059 182.422 171.782 181.568 172.057Z" fill="#E9DFFB"/>
<path d="M107.761 226.077L77.342 235.849C76.0285 236.271 74.6124 235.48 74.1762 234.083C73.7394 232.684 74.4487 231.211 75.7623 230.789L106.18 221.018C107.491 220.597 108.908 221.387 109.344 222.786C109.782 224.183 109.073 225.656 107.761 226.077Z" fill="#E9DFFB"/>
<path d="M181.57 172.056L52.8199 213.414C51.9659 213.688 51.0298 213.471 50.3695 212.852C49.7035 212.232 49.4118 211.298 49.5992 210.402L63.955 142.523C64.2515 141.136 65.5765 140.268 66.9412 140.572C68.2974 140.885 69.1575 142.259 68.8655 143.642L55.422 207.181L180.039 167.151C181.358 166.727 182.77 167.481 183.192 168.835C183.616 170.192 182.89 171.632 181.57 172.056Z" fill="#E9DFFB"/>
<path d="M236.876 184.602L108.128 225.959C106.807 226.384 105.398 225.64 104.98 224.298C104.56 222.954 105.289 221.524 106.611 221.1L231.225 181.07L184.327 137.448C183.305 136.496 183.234 134.884 184.167 133.842C185.103 132.811 186.684 132.732 187.712 133.686L237.811 180.292C238.472 180.912 238.76 181.836 238.565 182.723C238.374 183.608 237.73 184.328 236.876 184.602Z" fill="#E9DFFB"/>
<path d="M181.575 172.055L85.7848 202.825C84.4664 203.248 83.0463 202.459 82.6095 201.06C82.1733 199.663 82.8866 198.188 84.2051 197.765L179.995 166.995C181.312 166.572 182.732 167.361 183.168 168.758C183.605 170.157 182.892 171.632 181.575 172.055Z" fill="#E9DFFB"/>
<path d="M156.672 148.505L92.7829 169.028C91.9257 169.303 90.9886 169.093 90.3255 168.471C89.6584 167.853 89.3674 166.921 89.557 166.027L118.114 32.3311C118.408 30.9477 119.744 30.0769 121.113 30.3786C122.47 30.6841 123.33 32.0535 123.039 33.4415L95.4042 162.801L155.144 143.611C156.468 143.185 157.882 143.935 158.304 145.286C158.727 146.641 157.998 148.079 156.672 148.505Z" fill="#E9DFFB"/>
<path d="M156.658 148.509L124.121 158.961C123.258 159.238 122.315 159.028 121.648 158.403C120.977 157.784 120.684 156.848 120.876 155.949L135.18 89.3345C135.483 87.943 136.823 87.0689 138.198 87.3715C139.565 87.6769 140.429 89.0525 140.135 90.447L126.765 152.703L155.123 143.594C156.457 143.166 157.88 143.918 158.303 145.275C158.728 146.635 157.993 148.081 156.658 148.509Z" fill="#E9DFFB"/>
<path d="M77.5027 235.797C76.6803 236.061 75.7428 235.89 75.0527 235.259L50.3363 212.704C49.2958 211.755 49.2104 210.138 50.142 209.08C51.07 208.029 52.6658 207.937 53.7062 208.886L78.4249 231.442C79.4654 232.391 79.5525 234.013 78.6193 235.066C78.3061 235.418 77.9216 235.663 77.5027 235.797Z" fill="#E9DFFB"/>
<path d="M236.689 184.662C236.246 184.805 235.762 184.824 235.286 184.693C233.95 184.324 233.147 182.922 233.499 181.552L241.688 149.832L121.838 37.7609L94.4086 166.954C94.1057 168.339 92.7774 169.198 91.4209 168.902C90.0668 168.597 89.208 167.228 89.4997 165.843L117.854 32.3109C118.242 30.5263 120.67 29.7465 122 30.9791L246.194 147.11C246.885 147.754 247.167 148.742 246.931 149.662L238.351 182.883C238.122 183.761 237.479 184.409 236.689 184.662Z" fill="#E9DFFB"/>
</g>
</svg>
