<svg width="208" height="270" viewBox="0 0 208 270" fill="none" xmlns="http://www.w3.org/2000/svg">
<path d="M-20.2506 193.958V-0.15625H98.8758C98.8758 -0.15625 162.468 64.4815 171.833 87.7671C181.197 111.053 169.437 146.583 133.939 161.639C98.4403 176.694 77.751 183.319 46.6083 193.958C15.4656 204.597 5.19553 207.465 -20.2506 193.958Z" fill="#82DDFF"/>
<path d="M179.799 41.2026C167.485 16.9093 155.171 -0.15625 155.171 -0.15625H-20.2506V233.14C-11.5499 260.75 12.3708 271.688 36.9989 268.877C61.627 266.066 89.4347 245.467 94.2485 203.827C99.0622 162.187 94.2485 145.202 94.2485 125.928C94.2485 106.654 105.05 91.797 128.382 95.6116C151.714 99.4263 165.54 103.04 179.799 95.6116C194.057 88.1831 192.113 65.4959 179.799 41.2026Z" fill="#A8AEFF" fill-opacity="0.7"/>
<g opacity="0.6">
<path d="M152.919 111.037C152.016 111.246 150.975 111.079 150.2 110.533L66.6729 51.2482C65.5222 50.4299 65.4037 49.0722 66.4065 48.2116C67.415 47.3545 69.1564 47.3236 70.3127 48.1406L153.84 107.425C154.99 108.242 155.11 109.6 154.107 110.46C153.774 110.741 153.363 110.934 152.919 111.037Z" fill="#E9DFFB"/>
<path d="M117.793 120.879L-25.4822 153.915C-26.4325 154.134 -27.4824 153.945 -28.2356 153.413C-28.9931 152.885 -29.3378 152.098 -29.1456 151.35L7.18435 11.0908C7.38093 10.3431 8.08615 9.74581 9.03645 9.52669L45.512 1.11622C46.982 0.777264 48.5761 1.42673 49.0764 2.56845C49.576 3.70869 48.7915 4.9066 47.3214 5.24556L12.3842 13.3013L-22.6925 148.724L115.983 116.748C117.451 116.409 119.045 117.059 119.545 118.199C120.046 119.342 119.261 120.54 117.793 120.879Z" fill="#E9DFFB"/>
<path d="M117.758 120.345L-27.2717 153.905C-28.7597 154.25 -30.3744 153.587 -30.8822 152.424C-31.3893 151.263 -30.5962 150.043 -29.1082 149.699L111.263 117.216L57.0308 78.9287C55.8507 78.0948 55.7308 76.7065 56.7642 75.8246C57.7996 74.9472 59.5958 74.9116 60.7824 75.7457L118.715 116.65C119.478 117.192 119.828 117.994 119.627 118.754C119.431 119.513 118.72 120.122 117.758 120.345Z" fill="#E9DFFB"/>
<path d="M33.2778 164.2L-1.2646 172.329C-2.75623 172.68 -4.39038 171.968 -4.91793 170.74C-5.44617 169.509 -4.66676 168.23 -3.17512 167.879L31.3653 159.751C32.855 159.401 34.4892 160.112 35.0174 161.342C35.5469 162.571 34.7675 163.85 33.2778 164.2Z" fill="#E9DFFB"/>
<path d="M117.76 120.344L-27.2709 153.905C-28.2328 154.128 -29.2981 153.93 -30.0592 153.392C-30.8268 152.854 -31.1767 152.053 -30.9829 151.291L-16.1271 93.5431C-15.8198 92.3633 -14.3366 91.64 -12.7838 91.9185C-11.2405 92.2041 -10.2374 93.388 -10.5396 94.5649L-24.452 148.62L115.923 116.136C117.409 115.792 119.024 116.455 119.531 117.616C120.04 118.781 119.247 120 117.76 120.344Z" fill="#E9DFFB"/>
<path d="M180.521 130.324L35.4781 163.891C33.9898 164.235 32.3785 163.581 31.8758 162.43C31.3725 161.277 32.1694 160.065 33.6577 159.721L174.044 127.232L119.989 89.3535C118.812 88.5268 118.697 87.1498 119.733 86.2729C120.773 85.4049 122.563 85.3592 123.747 86.1875L181.491 126.656C182.252 127.194 182.598 127.987 182.395 128.742C182.197 129.495 181.483 130.101 180.521 130.324Z" fill="#E9DFFB"/>
<path d="M117.737 118.837L8.67508 144.828C7.17392 145.185 5.53095 144.464 5.00132 143.215C4.47237 141.967 5.25837 140.667 6.75953 140.309L115.821 114.318C117.32 113.961 118.963 114.682 119.492 115.93C120.022 117.179 119.236 118.479 117.737 118.837Z" fill="#E9DFFB"/>
<path d="M89.7394 100.449L19.2723 116.745C18.3268 116.963 17.2828 116.776 16.5344 116.247C15.7817 115.723 15.4399 114.94 15.632 114.196L44.5945 2.90395C44.8934 1.75241 46.3579 1.04274 47.8826 1.31282C49.394 1.58595 50.3767 2.74117 50.0816 3.89667L22.0538 111.578L87.9445 96.3407C89.4052 96.003 90.9898 96.6479 91.4852 97.7819C91.982 98.9189 91.202 100.111 89.7394 100.449Z" fill="#E9DFFB"/>
<path d="M89.7216 99.8357L53.7984 108.139C52.8455 108.359 51.7938 108.171 51.0402 107.64C50.2823 107.114 49.9387 106.328 50.133 105.579L64.6619 50.0981C64.9699 48.9392 66.4404 48.2265 67.9745 48.4976C69.4991 48.7709 70.4861 49.9319 70.1876 51.0935L56.608 102.945L87.9172 95.7075C89.3892 95.3673 90.9852 96.0147 91.4833 97.1542C91.9827 98.2967 91.1956 99.495 89.7216 99.8357Z" fill="#E9DFFB"/>
<path d="M-1.1505 172.623C-2.05936 172.833 -3.10516 172.677 -3.88522 172.14L-31.8241 152.952C-33.0002 152.144 -33.1281 150.791 -32.114 149.919C-31.1038 149.052 -29.3315 148.997 -28.1554 149.804L-0.213974 168.993C0.962143 169.801 1.09199 171.158 0.0759981 172.026C-0.264981 172.316 -0.687532 172.516 -1.1505 172.623Z" fill="#E9DFFB"/>
<path d="M180.84 130.906C180.347 131.02 179.807 131.029 179.272 130.913C177.77 130.586 176.843 129.398 177.209 128.253L185.714 101.735L49.4182 6.06694L21.4007 114.149C21.0904 115.307 19.623 116.01 18.1003 115.744C16.5801 115.469 15.5919 114.309 15.8895 113.15L44.8519 1.43916C45.2493 -0.0537095 47.9476 -0.676005 49.4601 0.376361L190.696 99.5108C191.481 100.06 191.817 100.893 191.572 101.662L182.661 129.435C182.423 130.168 181.717 130.704 180.84 130.906Z" fill="#E9DFFB"/>
</g>
</svg>
