<svg width="1280" height="120" viewBox="0 0 1280 120" fill="none" xmlns="http://www.w3.org/2000/svg">
<rect width="1280" height="120" fill="#0C031B" fill-opacity="0.6"/>
<path fill-rule="evenodd" clip-rule="evenodd" d="M627.779 57.2291C627.518 57.2291 627.268 57.1269 627.085 56.9461L627.084 56.9457C626.901 56.7649 626.797 56.5193 626.797 56.2621V37.7379C626.797 37.4807 626.901 37.2351 627.084 37.0543L627.085 37.0539C627.268 36.8731 627.518 36.771 627.779 36.771H652.221C652.482 36.771 652.732 36.8731 652.915 37.0539L652.916 37.0543C653.099 37.2351 653.203 37.4807 653.203 37.7379V56.2621C653.203 56.5193 653.099 56.7649 652.916 56.9457L652.915 56.9461C652.732 57.1269 652.482 57.2291 652.221 57.2291H627.779ZM625.813 58.1978C626.335 58.7124 627.043 59 627.779 59H652.221C652.957 59 653.665 58.7124 654.187 58.1978C654.708 57.684 655 56.9876 655 56.2621V37.7379C655 37.0126 654.708 36.3163 654.187 35.8025C653.665 35.2878 652.957 35 652.221 35H627.779C627.043 35 626.335 35.2878 625.813 35.8025C625.292 36.3163 625 37.0126 625 37.7379V56.2621C625 56.9874 625.292 57.6837 625.813 58.1975" fill="white"/>
<path fill-rule="evenodd" clip-rule="evenodd" d="M627.143 58.7406C627.494 59.0864 628.063 59.0865 628.414 58.7407L637.18 50.1047L640.305 53.1834C640.473 53.3495 640.702 53.4428 640.94 53.4428C641.178 53.4428 641.407 53.3495 641.576 53.1834L648.461 46.3998L653.466 51.331C653.817 51.6768 654.386 51.6768 654.737 51.331C655.088 50.9852 655.088 50.4245 654.737 50.0787L649.096 44.5214C648.928 44.3554 648.699 44.2621 648.461 44.2621C648.222 44.2621 647.994 44.3554 647.825 44.5214L640.94 51.3051L637.815 48.2263C637.464 47.8805 636.895 47.8805 636.544 48.2263L627.143 57.4884C626.792 57.8342 626.792 58.3948 627.143 58.7406Z" fill="white"/>
<path fill-rule="evenodd" clip-rule="evenodd" d="M628.76 42.3692C628.76 44.3916 630.427 46.0332 632.479 46.0332C634.531 46.0332 636.198 44.3916 636.198 42.3692C636.198 40.3467 634.531 38.7051 632.479 38.7051C630.427 38.7051 628.76 40.3467 628.76 42.3692ZM632.479 44.2623C631.42 44.2623 630.558 43.4133 630.558 42.3692C630.558 41.325 631.42 40.476 632.479 40.476C633.539 40.476 634.401 41.325 634.401 42.3692C634.401 43.4133 633.539 44.2623 632.479 44.2623Z" fill="white"/>
<path d="M563.979 88H562.348L566.012 77.8182H567.787L571.451 88H569.82L566.942 79.6676H566.862L563.979 88ZM564.252 84.0128H569.542V85.3054H564.252V84.0128ZM575.538 88.1491C574.921 88.1491 574.371 87.9917 573.887 87.6768C573.406 87.3587 573.029 86.9062 572.754 86.3196C572.482 85.7296 572.346 85.022 572.346 84.1967C572.346 83.3714 572.483 82.6655 572.759 82.0788C573.037 81.4922 573.418 81.0431 573.902 80.7315C574.386 80.42 574.934 80.2642 575.548 80.2642C576.022 80.2642 576.403 80.3438 576.691 80.5028C576.983 80.6586 577.208 80.8409 577.367 81.0497C577.53 81.2585 577.656 81.4425 577.745 81.6016H577.835V77.8182H579.321V88H577.869V86.8118H577.745C577.656 86.9742 577.526 87.1598 577.357 87.3686C577.192 87.5774 576.963 87.7597 576.671 87.9155C576.379 88.0713 576.002 88.1491 575.538 88.1491ZM575.866 86.8814C576.293 86.8814 576.655 86.7687 576.95 86.5433C577.248 86.3146 577.473 85.9981 577.626 85.5938C577.781 85.1894 577.859 84.7187 577.859 84.1818C577.859 83.6515 577.783 83.1875 577.631 82.7898C577.478 82.392 577.254 82.0821 576.96 81.8601C576.665 81.638 576.3 81.527 575.866 81.527C575.418 81.527 575.045 81.643 574.747 81.875C574.449 82.107 574.223 82.4235 574.071 82.8246C573.922 83.2256 573.847 83.678 573.847 84.1818C573.847 84.6922 573.924 85.1513 574.076 85.5589C574.228 85.9666 574.454 86.2898 574.752 86.5284C575.054 86.7637 575.425 86.8814 575.866 86.8814ZM584.301 88.1491C583.685 88.1491 583.135 87.9917 582.651 87.6768C582.17 87.3587 581.792 86.9062 581.517 86.3196C581.245 85.7296 581.11 85.022 581.11 84.1967C581.11 83.3714 581.247 82.6655 581.522 82.0788C581.801 81.4922 582.182 81.0431 582.666 80.7315C583.15 80.42 583.698 80.2642 584.311 80.2642C584.785 80.2642 585.166 80.3438 585.455 80.5028C585.746 80.6586 585.972 80.8409 586.131 81.0497C586.293 81.2585 586.419 81.4425 586.509 81.6016H586.598V77.8182H588.085V88H586.633V86.8118H586.509C586.419 86.9742 586.29 87.1598 586.121 87.3686C585.955 87.5774 585.727 87.7597 585.435 87.9155C585.143 88.0713 584.765 88.1491 584.301 88.1491ZM584.629 86.8814C585.057 86.8814 585.418 86.7687 585.713 86.5433C586.012 86.3146 586.237 85.9981 586.389 85.5938C586.545 85.1894 586.623 84.7187 586.623 84.1818C586.623 83.6515 586.547 83.1875 586.394 82.7898C586.242 82.392 586.018 82.0821 585.723 81.8601C585.428 81.638 585.064 81.527 584.629 81.527C584.182 81.527 583.809 81.643 583.511 81.875C583.213 82.107 582.987 82.4235 582.835 82.8246C582.686 83.2256 582.611 83.678 582.611 84.1818C582.611 84.6922 582.687 85.1513 582.84 85.5589C582.992 85.9666 583.218 86.2898 583.516 86.5284C583.817 86.7637 584.189 86.8814 584.629 86.8814ZM594.851 90.8636C594.629 90.8636 594.427 90.8454 594.244 90.8089C594.062 90.7758 593.926 90.7393 593.837 90.6996L594.195 89.4815C594.467 89.5545 594.709 89.5859 594.921 89.576C595.133 89.5661 595.32 89.4865 595.482 89.3374C595.648 89.1882 595.794 88.9446 595.92 88.6065L596.104 88.0994L593.31 80.3636H594.901L596.835 86.2898H596.914L598.848 80.3636H600.444L597.297 89.0192C597.151 89.4169 596.966 89.7533 596.74 90.0284C596.515 90.3068 596.246 90.5156 595.935 90.6548C595.623 90.794 595.262 90.8636 594.851 90.8636ZM604.798 88.1541C604.082 88.1541 603.457 87.9901 602.924 87.6619C602.39 87.3338 601.976 86.8748 601.681 86.2848C601.386 85.6948 601.238 85.0054 601.238 84.2166C601.238 83.4245 601.386 82.7318 601.681 82.1385C601.976 81.5452 602.39 81.0845 602.924 80.7564C603.457 80.4283 604.082 80.2642 604.798 80.2642C605.514 80.2642 606.139 80.4283 606.672 80.7564C607.206 81.0845 607.62 81.5452 607.915 82.1385C608.21 82.7318 608.358 83.4245 608.358 84.2166C608.358 85.0054 608.21 85.6948 607.915 86.2848C607.62 86.8748 607.206 87.3338 606.672 87.6619C606.139 87.9901 605.514 88.1541 604.798 88.1541ZM604.803 86.9062C605.267 86.9062 605.651 86.7836 605.956 86.5384C606.261 86.2931 606.487 85.9666 606.632 85.5589C606.782 85.1513 606.856 84.7022 606.856 84.2116C606.856 83.7244 606.782 83.277 606.632 82.8693C606.487 82.4583 606.261 82.1286 605.956 81.88C605.651 81.6314 605.267 81.5071 604.803 81.5071C604.336 81.5071 603.948 81.6314 603.64 81.88C603.335 82.1286 603.108 82.4583 602.958 82.8693C602.813 83.277 602.74 83.7244 602.74 84.2116C602.74 84.7022 602.813 85.1513 602.958 85.5589C603.108 85.9666 603.335 86.2931 603.64 86.5384C603.948 86.7836 604.336 86.9062 604.803 86.9062ZM614.854 84.8331V80.3636H616.346V88H614.884V86.6776H614.805C614.629 87.0852 614.347 87.425 613.959 87.6967C613.575 87.9652 613.096 88.0994 612.523 88.0994C612.032 88.0994 611.598 87.9917 611.22 87.7763C610.845 87.5575 610.55 87.2344 610.335 86.8068C610.123 86.3793 610.017 85.8506 610.017 85.2209V80.3636H611.503V85.0419C611.503 85.5623 611.648 85.9766 611.936 86.2848C612.224 86.593 612.599 86.7472 613.059 86.7472C613.338 86.7472 613.615 86.6776 613.89 86.5384C614.168 86.3991 614.398 86.1887 614.581 85.907C614.766 85.6252 614.858 85.2673 614.854 84.8331ZM618.343 88V80.3636H619.78V81.5767H619.859C619.999 81.1657 620.244 80.8426 620.595 80.6072C620.95 80.3686 621.351 80.2493 621.798 80.2493C621.891 80.2493 622 80.2526 622.126 80.2592C622.256 80.2659 622.357 80.2741 622.43 80.2841V81.706C622.37 81.6894 622.264 81.6712 622.112 81.6513C621.959 81.6281 621.807 81.6165 621.654 81.6165C621.303 81.6165 620.99 81.6911 620.714 81.8402C620.443 81.986 620.227 82.1899 620.068 82.4517C619.909 82.7102 619.83 83.0052 619.83 83.3366V88H618.343ZM628.908 83.4659V88H627.421V77.8182H628.888V81.6065H628.982C629.161 81.1955 629.435 80.8691 629.803 80.6271C630.17 80.3852 630.651 80.2642 631.244 80.2642C631.768 80.2642 632.225 80.3719 632.616 80.5874C633.011 80.8028 633.316 81.1243 633.531 81.5518C633.75 81.9761 633.859 82.5064 633.859 83.1428V88H632.373V83.3217C632.373 82.7616 632.229 82.3274 631.94 82.0192C631.652 81.7076 631.251 81.5518 630.737 81.5518C630.386 81.5518 630.071 81.6264 629.793 81.7756C629.518 81.9247 629.3 82.1435 629.141 82.4318C628.986 82.7169 628.908 83.0616 628.908 83.4659ZM639.134 88.1541C638.382 88.1541 637.734 87.9934 637.19 87.6719C636.65 87.3471 636.232 86.8913 635.938 86.3047C635.646 85.7147 635.5 85.0237 635.5 84.2315C635.5 83.4493 635.646 82.7599 635.938 82.1634C636.232 81.5668 636.643 81.1011 637.17 80.7663C637.701 80.4316 638.321 80.2642 639.03 80.2642C639.461 80.2642 639.878 80.3355 640.283 80.478C640.687 80.6205 641.05 80.8442 641.371 81.1491C641.693 81.4541 641.946 81.8501 642.132 82.3374C642.318 82.8213 642.411 83.4096 642.411 84.1023V84.6293H636.34V83.5156H640.954C640.954 83.1245 640.874 82.7782 640.715 82.4766C640.556 82.1716 640.332 81.9313 640.044 81.7557C639.759 81.58 639.424 81.4922 639.04 81.4922C638.622 81.4922 638.258 81.5949 637.946 81.8004C637.638 82.0026 637.399 82.2678 637.23 82.5959C637.064 82.9207 636.982 83.2737 636.982 83.6548V84.5249C636.982 85.0353 637.071 85.4695 637.25 85.8274C637.432 86.1854 637.686 86.4588 638.011 86.6477C638.335 86.8333 638.715 86.9261 639.149 86.9261C639.431 86.9261 639.688 86.8864 639.92 86.8068C640.152 86.724 640.352 86.6013 640.521 86.4389C640.69 86.2765 640.82 86.076 640.909 85.8374L642.316 86.0909C642.203 86.5052 642.001 86.8681 641.71 87.1797C641.421 87.4879 641.058 87.7282 640.621 87.9006C640.187 88.0696 639.691 88.1541 639.134 88.1541ZM646.282 88.169C645.798 88.169 645.361 88.0795 644.97 87.9006C644.579 87.7183 644.269 87.4548 644.04 87.1101C643.815 86.7654 643.702 86.3428 643.702 85.8423C643.702 85.4115 643.785 85.0568 643.95 84.7784C644.116 84.5 644.34 84.2796 644.622 84.1172C644.903 83.9548 645.218 83.8321 645.566 83.7493C645.914 83.6664 646.269 83.6035 646.63 83.5604C647.088 83.5073 647.459 83.4643 647.744 83.4311C648.029 83.3946 648.236 83.3366 648.365 83.2571C648.494 83.1776 648.559 83.0483 648.559 82.8693V82.8345C648.559 82.4003 648.436 82.0639 648.191 81.8253C647.949 81.5866 647.588 81.4673 647.107 81.4673C646.607 81.4673 646.213 81.5784 645.924 81.8004C645.639 82.0192 645.442 82.2628 645.333 82.5312L643.936 82.2131C644.101 81.7491 644.343 81.3745 644.661 81.0895C644.983 80.8011 645.352 80.5923 645.77 80.4631C646.188 80.3305 646.627 80.2642 647.088 80.2642C647.392 80.2642 647.716 80.3007 648.057 80.3736C648.402 80.4432 648.723 80.5724 649.021 80.7614C649.323 80.9503 649.57 81.2204 649.762 81.5717C649.954 81.9197 650.051 82.3722 650.051 82.929V88H648.599V86.956H648.539C648.443 87.1482 648.299 87.3371 648.107 87.5227C647.914 87.7083 647.668 87.8625 647.366 87.9851C647.064 88.1077 646.703 88.169 646.282 88.169ZM646.605 86.9759C647.016 86.9759 647.368 86.8946 647.659 86.7322C647.954 86.5698 648.178 86.3577 648.33 86.0959C648.486 85.8307 648.564 85.5473 648.564 85.2457V84.2614C648.511 84.3144 648.408 84.3641 648.256 84.4105C648.107 84.4536 647.936 84.4917 647.744 84.5249C647.552 84.5547 647.364 84.5829 647.182 84.6094C647 84.6326 646.847 84.6525 646.725 84.669C646.436 84.7055 646.173 84.7668 645.934 84.853C645.699 84.9392 645.51 85.0634 645.367 85.2259C645.228 85.3849 645.159 85.5971 645.159 85.8622C645.159 86.2301 645.294 86.5085 645.566 86.6974C645.838 86.883 646.184 86.9759 646.605 86.9759ZM654.889 88.1491C654.273 88.1491 653.723 87.9917 653.239 87.6768C652.758 87.3587 652.38 86.9062 652.105 86.3196C651.833 85.7296 651.697 85.022 651.697 84.1967C651.697 83.3714 651.835 82.6655 652.11 82.0788C652.388 81.4922 652.77 81.0431 653.254 80.7315C653.737 80.42 654.286 80.2642 654.899 80.2642C655.373 80.2642 655.754 80.3438 656.043 80.5028C656.334 80.6586 656.56 80.8409 656.719 81.0497C656.881 81.2585 657.007 81.4425 657.097 81.6016H657.186V77.8182H658.673V88H657.221V86.8118H657.097C657.007 86.9742 656.878 87.1598 656.709 87.3686C656.543 87.5774 656.314 87.7597 656.023 87.9155C655.731 88.0713 655.353 88.1491 654.889 88.1491ZM655.217 86.8814C655.645 86.8814 656.006 86.7687 656.301 86.5433C656.599 86.3146 656.825 85.9981 656.977 85.5938C657.133 85.1894 657.211 84.7187 657.211 84.1818C657.211 83.6515 657.135 83.1875 656.982 82.7898C656.83 82.392 656.606 82.0821 656.311 81.8601C656.016 81.638 655.652 81.527 655.217 81.527C654.77 81.527 654.397 81.643 654.099 81.875C653.8 82.107 653.575 82.4235 653.423 82.8246C653.273 83.2256 653.199 83.678 653.199 84.1818C653.199 84.6922 653.275 85.1513 653.428 85.5589C653.58 85.9666 653.805 86.2898 654.104 86.5284C654.405 86.7637 654.777 86.8814 655.217 86.8814ZM664.085 88.1541C663.333 88.1541 662.685 87.9934 662.142 87.6719C661.601 87.3471 661.184 86.8913 660.889 86.3047C660.597 85.7147 660.451 85.0237 660.451 84.2315C660.451 83.4493 660.597 82.7599 660.889 82.1634C661.184 81.5668 661.595 81.1011 662.122 80.7663C662.652 80.4316 663.272 80.2642 663.981 80.2642C664.412 80.2642 664.829 80.3355 665.234 80.478C665.638 80.6205 666.001 80.8442 666.323 81.1491C666.644 81.4541 666.898 81.8501 667.083 82.3374C667.269 82.8213 667.362 83.4096 667.362 84.1023V84.6293H661.291V83.5156H665.905C665.905 83.1245 665.825 82.7782 665.666 82.4766C665.507 82.1716 665.284 81.9313 664.995 81.7557C664.71 81.58 664.375 81.4922 663.991 81.4922C663.573 81.4922 663.209 81.5949 662.897 81.8004C662.589 82.0026 662.35 82.2678 662.181 82.5959C662.016 82.9207 661.933 83.2737 661.933 83.6548V84.5249C661.933 85.0353 662.022 85.4695 662.201 85.8274C662.383 86.1854 662.637 86.4588 662.962 86.6477C663.287 86.8333 663.666 86.9261 664.1 86.9261C664.382 86.9261 664.639 86.8864 664.871 86.8068C665.103 86.724 665.303 86.6013 665.472 86.4389C665.642 86.2765 665.771 86.076 665.86 85.8374L667.267 86.0909C667.155 86.5052 666.952 86.8681 666.661 87.1797C666.372 87.4879 666.009 87.7282 665.572 87.9006C665.138 88.0696 664.642 88.1541 664.085 88.1541ZM669.011 88V80.3636H670.448V81.5767H670.527C670.667 81.1657 670.912 80.8426 671.263 80.6072C671.618 80.3686 672.019 80.2493 672.466 80.2493C672.559 80.2493 672.668 80.2526 672.794 80.2592C672.924 80.2659 673.025 80.2741 673.098 80.2841V81.706C673.038 81.6894 672.932 81.6712 672.779 81.6513C672.627 81.6281 672.475 81.6165 672.322 81.6165C671.971 81.6165 671.658 81.6911 671.382 81.8402C671.111 81.986 670.895 82.1899 670.736 82.4517C670.577 82.7102 670.498 83.0052 670.498 83.3366V88H669.011ZM678.089 88V80.3636H679.576V88H678.089ZM678.84 79.1854C678.581 79.1854 678.359 79.0992 678.174 78.9268C677.991 78.7512 677.9 78.5424 677.9 78.3004C677.9 78.0552 677.991 77.8464 678.174 77.674C678.359 77.4983 678.581 77.4105 678.84 77.4105C679.098 77.4105 679.319 77.4983 679.501 77.674C679.687 77.8464 679.779 78.0552 679.779 78.3004C679.779 78.5424 679.687 78.7512 679.501 78.9268C679.319 79.0992 679.098 79.1854 678.84 79.1854ZM681.575 88V80.3636H683.002V81.6065H683.097C683.256 81.1856 683.516 80.8575 683.877 80.6222C684.239 80.3835 684.671 80.2642 685.175 80.2642C685.685 80.2642 686.113 80.3835 686.458 80.6222C686.806 80.8608 687.062 81.1889 687.228 81.6065H687.308C687.49 81.1989 687.78 80.8741 688.178 80.6321C688.575 80.3868 689.049 80.2642 689.6 80.2642C690.292 80.2642 690.857 80.4813 691.295 80.9155C691.736 81.3497 691.956 82.0043 691.956 82.8793V88H690.47V83.0185C690.47 82.5014 690.329 82.1269 690.047 81.8949C689.765 81.6629 689.429 81.5469 689.038 81.5469C688.554 81.5469 688.178 81.696 687.909 81.9943C687.641 82.2893 687.507 82.6688 687.507 83.1328V88H686.025V82.924C686.025 82.5097 685.896 82.1766 685.637 81.9247C685.379 81.6728 685.042 81.5469 684.628 81.5469C684.346 81.5469 684.086 81.6214 683.847 81.7706C683.612 81.9164 683.422 82.1203 683.276 82.3821C683.133 82.6439 683.062 82.9472 683.062 83.2919V88H681.575ZM696.171 88.169C695.687 88.169 695.249 88.0795 694.858 87.9006C694.467 87.7183 694.157 87.4548 693.929 87.1101C693.703 86.7654 693.591 86.3428 693.591 85.8423C693.591 85.4115 693.673 85.0568 693.839 84.7784C694.005 84.5 694.229 84.2796 694.51 84.1172C694.792 83.9548 695.107 83.8321 695.455 83.7493C695.803 83.6664 696.158 83.6035 696.519 83.5604C696.976 83.5073 697.347 83.4643 697.632 83.4311C697.917 83.3946 698.125 83.3366 698.254 83.2571C698.383 83.1776 698.448 83.0483 698.448 82.8693V82.8345C698.448 82.4003 698.325 82.0639 698.08 81.8253C697.838 81.5866 697.477 81.4673 696.996 81.4673C696.496 81.4673 696.101 81.5784 695.813 81.8004C695.528 82.0192 695.331 82.2628 695.221 82.5312L693.824 82.2131C693.99 81.7491 694.232 81.3745 694.55 81.0895C694.872 80.8011 695.241 80.5923 695.659 80.4631C696.076 80.3305 696.516 80.2642 696.976 80.2642C697.281 80.2642 697.604 80.3007 697.946 80.3736C698.29 80.4432 698.612 80.5724 698.91 80.7614C699.212 80.9503 699.459 81.2204 699.651 81.5717C699.843 81.9197 699.939 82.3722 699.939 82.929V88H698.488V86.956H698.428C698.332 87.1482 698.188 87.3371 697.995 87.5227C697.803 87.7083 697.556 87.8625 697.255 87.9851C696.953 88.1077 696.592 88.169 696.171 88.169ZM696.494 86.9759C696.905 86.9759 697.256 86.8946 697.548 86.7322C697.843 86.5698 698.067 86.3577 698.219 86.0959C698.375 85.8307 698.453 85.5473 698.453 85.2457V84.2614C698.4 84.3144 698.297 84.3641 698.145 84.4105C697.995 84.4536 697.825 84.4917 697.632 84.5249C697.44 84.5547 697.253 84.5829 697.071 84.6094C696.888 84.6326 696.736 84.6525 696.613 84.669C696.325 84.7055 696.061 84.7668 695.823 84.853C695.587 84.9392 695.399 85.0634 695.256 85.2259C695.117 85.3849 695.047 85.5971 695.047 85.8622C695.047 86.2301 695.183 86.5085 695.455 86.6974C695.727 86.883 696.073 86.9759 696.494 86.9759ZM705.121 91.0227C704.514 91.0227 703.992 90.9432 703.555 90.7841C703.121 90.625 702.766 90.4145 702.491 90.1527C702.216 89.8909 702.01 89.6042 701.874 89.2926L703.152 88.7656C703.242 88.9115 703.361 89.0656 703.51 89.228C703.663 89.3937 703.868 89.5346 704.127 89.6506C704.388 89.7666 704.725 89.8246 705.136 89.8246C705.699 89.8246 706.165 89.687 706.533 89.4119C706.901 89.1402 707.085 88.706 707.085 88.1094V86.608H706.99C706.901 86.7704 706.771 86.951 706.602 87.1499C706.437 87.3487 706.208 87.5211 705.916 87.6669C705.625 87.8127 705.245 87.8857 704.778 87.8857C704.175 87.8857 703.631 87.7448 703.147 87.4631C702.667 87.178 702.285 86.7588 702.004 86.2053C701.725 85.6484 701.586 84.964 701.586 84.152C701.586 83.34 701.724 82.6439 701.999 82.0639C702.277 81.4839 702.658 81.0398 703.142 80.7315C703.626 80.42 704.175 80.2642 704.788 80.2642C705.262 80.2642 705.645 80.3438 705.936 80.5028C706.228 80.6586 706.455 80.8409 706.617 81.0497C706.783 81.2585 706.911 81.4425 707 81.6016H707.11V80.3636H708.566V88.169C708.566 88.8253 708.414 89.3639 708.109 89.7848C707.804 90.2057 707.391 90.5173 706.871 90.7195C706.354 90.9216 705.771 91.0227 705.121 91.0227ZM705.106 86.6527C705.534 86.6527 705.895 86.5533 706.19 86.3544C706.488 86.1522 706.713 85.8639 706.866 85.4893C707.022 85.1115 707.1 84.6591 707.1 84.1321C707.1 83.6184 707.023 83.166 706.871 82.7749C706.718 82.3838 706.495 82.0788 706.2 81.8601C705.905 81.638 705.54 81.527 705.106 81.527C704.659 81.527 704.286 81.643 703.987 81.875C703.689 82.1037 703.464 82.4152 703.311 82.8097C703.162 83.2041 703.088 83.6449 703.088 84.1321C703.088 84.6326 703.164 85.0717 703.316 85.4496C703.469 85.8274 703.694 86.1224 703.992 86.3345C704.294 86.5466 704.665 86.6527 705.106 86.6527ZM713.851 88.1541C713.099 88.1541 712.451 87.9934 711.907 87.6719C711.367 87.3471 710.949 86.8913 710.654 86.3047C710.363 85.7147 710.217 85.0237 710.217 84.2315C710.217 83.4493 710.363 82.7599 710.654 82.1634C710.949 81.5668 711.36 81.1011 711.887 80.7663C712.418 80.4316 713.037 80.2642 713.747 80.2642C714.177 80.2642 714.595 80.3355 714.999 80.478C715.404 80.6205 715.767 80.8442 716.088 81.1491C716.41 81.4541 716.663 81.8501 716.849 82.3374C717.035 82.8213 717.127 83.4096 717.127 84.1023V84.6293H711.057V83.5156H715.671C715.671 83.1245 715.591 82.7782 715.432 82.4766C715.273 82.1716 715.049 81.9313 714.761 81.7557C714.476 81.58 714.141 81.4922 713.757 81.4922C713.339 81.4922 712.974 81.5949 712.663 81.8004C712.355 82.0026 712.116 82.2678 711.947 82.5959C711.781 82.9207 711.698 83.2737 711.698 83.6548V84.5249C711.698 85.0353 711.788 85.4695 711.967 85.8274C712.149 86.1854 712.403 86.4588 712.727 86.6477C713.052 86.8333 713.432 86.9261 713.866 86.9261C714.148 86.9261 714.405 86.8864 714.637 86.8068C714.869 86.724 715.069 86.6013 715.238 86.4389C715.407 86.2765 715.536 86.076 715.626 85.8374L717.033 86.0909C716.92 86.5052 716.718 86.8681 716.426 87.1797C716.138 87.4879 715.775 87.7282 715.338 87.9006C714.903 88.0696 714.408 88.1541 713.851 88.1541Z" fill="white"/>
</svg>
