<svg width="55" height="72" viewBox="0 0 55 72" fill="none" xmlns="http://www.w3.org/2000/svg">
<g clip-path="url(#clip0_3239_32034)">
<path d="M55 70H0V72H55V70Z" fill="#0C031B"/>
<path d="M8.49751 43.3661V44.8082H5.16916V54.7581H3.33763V44.8082H0V43.3661H8.49751ZM22.585 54.7581L21.488 52.0994H15.6121L14.5151 54.7581H12.5906L17.4344 43.3661H19.6657L24.5096 54.7581H22.585ZM16.1888 50.6975H20.9117L18.5503 44.953L16.1888 50.6975ZM34.2185 54.9112C31.4759 54.9112 29.4677 53.7752 29.0215 51.8416L30.9088 51.4549C31.2063 52.7842 32.5358 53.5496 34.2836 53.5496C35.6874 53.5496 37.0355 53.0501 37.0076 51.6804C36.989 50.3269 35.2969 49.9563 33.5026 49.5293C31.4666 49.0459 29.4305 48.49 29.4305 46.3952C29.4305 44.2764 31.448 43.2129 33.8373 43.2129C36.1523 43.2129 38.2348 44.0588 38.7273 46.0166L36.933 46.4114C36.6076 45.1465 35.3897 44.5825 33.9208 44.5825C32.6006 44.5825 31.2898 45.082 31.2898 46.3792C31.2898 47.5555 32.7587 47.9019 34.4228 48.2886C36.5147 48.78 38.9133 49.344 38.9133 51.6321C38.9133 53.9363 36.6823 54.9112 34.2185 54.9112ZM52.6289 54.7581L48.0176 49.5614H46.8833V54.7581H45.0332V43.3661H46.8833V48.1275H47.999L52.4802 43.3661H54.7487L49.5983 48.7962L55 54.7581H52.6289Z" fill="#0C031B"/>
<path d="M5.03447 57.6511H6.15263V64.5361H5.03447V61.5173H1.1294V64.5361H0V57.6511H1.1294V60.6554H5.03447V57.6511ZM15.577 64.5361L14.914 62.9293H11.3628L10.6998 64.5361H9.53664L12.4641 57.6511H13.8127L16.7402 64.5361H15.577ZM11.7113 62.082H14.5657L13.1385 58.6102L11.7113 62.082ZM24.4061 64.5361L22.3496 61.4392H21.237V64.5361H20.1189V57.6511H22.7935C24.4567 57.6511 25.2152 58.5324 25.2152 59.6134C25.2152 60.5726 24.5634 61.2397 23.4734 61.4004L25.7153 64.5361L24.4061 64.5361ZM21.2369 58.4885V60.6991H22.6416C23.6755 60.6991 24.1418 60.2511 24.1418 59.5987C24.1418 58.9559 23.6755 58.4885 22.6416 58.4885H21.2369ZM33.0549 60.9329C33.9933 61.1374 34.6226 61.6974 34.6226 62.6566C34.6226 63.7619 33.7573 64.5362 32.3301 64.5362H29.2061V57.6511H31.6447C33.1112 57.6511 34.0383 58.3912 34.0383 59.482C34.0383 60.1344 33.6955 60.67 33.0549 60.9329ZM32.9931 59.545C32.9931 58.951 32.4986 58.4884 31.6389 58.4884H30.2904V60.6309H31.8131C32.5324 60.6309 32.9931 60.144 32.9931 59.545ZM32.1392 63.684C33.0439 63.684 33.5327 63.1581 33.5327 62.5592C33.5327 61.9262 33.0214 61.4198 32.0718 61.4198H30.2906V63.684H32.1392ZM41.7097 64.6286C39.4565 64.6286 37.737 63.2847 37.737 61.0887C37.737 58.8976 39.4564 57.5586 41.7097 57.5586C43.9516 57.5586 45.6766 58.8976 45.6766 61.0887C45.6766 63.2848 43.9516 64.6286 41.7097 64.6286ZM41.7097 63.7181C43.2998 63.7181 44.5585 62.7637 44.5585 61.0887C44.5585 59.4282 43.2998 58.4739 41.7097 58.4739C40.1139 58.4739 38.8497 59.4283 38.8497 61.0887C38.8497 62.7637 40.1139 63.7181 41.7097 63.7181ZM53.6908 64.5361L51.6343 61.4392H50.5217V64.5361H49.4036V57.6511H52.0782C53.7414 57.6511 54.4999 58.5324 54.4999 59.6134C54.4999 60.5726 53.8481 61.2397 52.7581 61.4004L55 64.5361L53.6908 64.5361ZM50.5216 58.4885V60.6991H51.9263C52.9602 60.6991 53.4265 60.2511 53.4265 59.5987C53.4265 58.9559 52.9602 58.4885 51.9263 58.4885H50.5216Z" fill="#5418C3"/>
<path d="M31.4186 3H24.5814L7 30M31.4186 3L49 30L45.093 35M31.4186 3L17.7442 24.5H24.1111M7 30H35.3256L28 19M7 30L10.4186 35H45.093M28 19L31.4186 14L45.093 35M28 19L24.1111 24.5M24.1111 24.5H31.4186" stroke="#E9DFFB" stroke-width="1.5" stroke-linecap="round" stroke-linejoin="round"/>
</g>
<defs>
<clipPath id="clip0_3239_32034">
<rect width="55" height="72" fill="white"/>
</clipPath>
</defs>
</svg>
