<svg width="16" height="16" viewBox="0 0 16 16" fill="none" xmlns="http://www.w3.org/2000/svg">
<g clip-path="url(#clip0_3266_26969)">
<path d="M9.57338 2.71976L10.1912 2.10184C11.215 1.07803 12.875 1.07803 13.8988 2.10184C14.9226 3.12564 14.9226 4.78555 13.8988 5.80936L13.2808 6.42727M9.57338 2.71976C9.57338 2.71976 9.65058 4.03284 10.8092 5.19144C11.9678 6.35003 13.2808 6.42727 13.2808 6.42727M9.57338 2.71976L7.99998 4.29313M13.2808 6.42727L9.77378 9.93439L7.70751 12.0007L7.60005 12.1081C7.21525 12.4929 7.02291 12.6853 6.81078 12.8507C6.56053 13.0459 6.28977 13.2133 6.0033 13.3498C5.76045 13.4655 5.50233 13.5515 4.9861 13.7236L2.79859 14.4528M2.79859 14.4528L2.26387 14.6311C2.00983 14.7157 1.72975 14.6496 1.5404 14.4603C1.35105 14.2709 1.28493 13.9908 1.36961 13.7368L1.54785 13.2021M2.79859 14.4528L1.54785 13.2021M1.54785 13.2021L2.27702 11.0145C2.4491 10.4983 2.53513 10.2402 2.65087 9.99732C2.78741 9.71085 2.95473 9.44012 3.14991 9.18985C3.31537 8.97772 3.50775 8.78539 3.89253 8.40059L5.66665 6.62647" stroke="white" stroke-width="1.5" stroke-linecap="round"/>
</g>
<defs>
<clipPath id="clip0_3266_26969">
<rect width="16" height="16" fill="white"/>
</clipPath>
</defs>
</svg>
