<svg width="20" height="18" viewBox="0 0 20 18" fill="none" xmlns="http://www.w3.org/2000/svg">
<path fill-rule="evenodd" clip-rule="evenodd" d="M1.85259 15.9216C1.67887 15.9216 1.51194 15.8524 1.38974 15.7301L1.38949 15.7298C1.26717 15.6075 1.19832 15.4413 1.19832 15.2673V2.7328C1.19832 2.55878 1.26717 2.3926 1.38949 2.27026L1.38974 2.27001C1.51194 2.14765 1.67887 2.07853 1.85259 2.07853H18.1474C18.3211 2.07853 18.4881 2.14765 18.6103 2.27001L18.6105 2.27026C18.7328 2.3926 18.8017 2.55878 18.8017 2.7328V15.2673C18.8017 15.4413 18.7328 15.6075 18.6105 15.7298L18.6103 15.7301C18.4881 15.8524 18.3211 15.9216 18.1474 15.9216H1.85259ZM0.542086 16.5771C0.889906 16.9252 1.36213 17.1199 1.85259 17.1199H18.1474C18.6379 17.1199 19.1101 16.9252 19.4579 16.5771C19.8056 16.2294 20 15.7582 20 15.2673V2.7328C20 2.24201 19.8056 1.77091 19.4582 1.42324C19.1103 1.07493 18.638 0.880211 18.1474 0.880211H1.85259C1.36201 0.880211 0.889683 1.07493 0.54184 1.42324C0.194354 1.77091 0 2.24201 0 2.7328V15.2673C0 15.7581 0.194354 16.2292 0.54184 16.5768" fill="#0C031B"/>
<path fill-rule="evenodd" clip-rule="evenodd" d="M1.42891 16.9444C1.6629 17.1784 2.04226 17.1784 2.27625 16.9444L8.11982 11.1008L10.2031 13.1841C10.3154 13.2965 10.4678 13.3596 10.6267 13.3596C10.7856 13.3596 10.938 13.2964 11.0504 13.1841L15.6405 8.59391L18.9772 11.9306C19.2111 12.1646 19.5905 12.1646 19.8245 11.9306C20.0585 11.6966 20.0585 11.3173 19.8245 11.0833L16.0642 7.3229C15.9518 7.21054 15.7994 7.14741 15.6405 7.14741C15.4816 7.14741 15.3292 7.21054 15.2168 7.3229L10.6267 11.9131L8.54349 9.82984C8.30951 9.59586 7.93014 9.59586 7.69616 9.82984L1.42892 16.097C1.19493 16.331 1.19493 16.7104 1.42891 16.9444Z" fill="#0C031B"/>
<path fill-rule="evenodd" clip-rule="evenodd" d="M2.50685 5.8669C2.50685 7.23541 3.61809 8.34619 4.98618 8.34619C6.35426 8.34619 7.4655 7.23541 7.4655 5.8669C7.4655 4.49842 6.35428 3.38758 4.98618 3.38758C3.61808 3.38758 2.50685 4.49842 2.50685 5.8669ZM4.98618 7.14788C4.27976 7.14788 3.70517 6.57345 3.70517 5.8669C3.70517 5.16034 4.27977 4.58589 4.98618 4.58589C5.69258 4.58589 6.26719 5.16034 6.26719 5.8669C6.26719 6.57345 5.6926 7.14788 4.98618 7.14788Z" fill="#0C031B"/>
</svg>
