<svg width="32" height="32" viewBox="0 0 32 32" fill="none" xmlns="http://www.w3.org/2000/svg">
<path d="M16 20C18.2091 20 20 18.2091 20 16C20 13.7909 18.2091 12 16 12C13.7909 12 12 13.7909 12 16C12 18.2091 13.7909 20 16 20Z" stroke="#0C031B" stroke-width="2"/>
<path d="M4.88154 14.1859C5.51161 14.5818 5.91701 15.2562 5.91701 16.0002C5.91699 16.7443 5.5116 17.4187 4.88154 17.8146C4.4528 18.0839 4.17656 18.2993 3.98002 18.5554C3.54948 19.1166 3.35946 19.8257 3.45178 20.5269C3.52101 21.0527 3.83164 21.5907 4.45289 22.6669C5.07416 23.7429 5.38478 24.2809 5.80559 24.6038C6.36669 25.0343 7.07583 25.2243 7.77703 25.1321C8.09707 25.0899 8.42162 24.9583 8.86919 24.7218C9.52717 24.3741 10.314 24.3602 10.9585 24.7323C11.6029 25.1045 11.9843 25.7927 12.0121 26.5363C12.031 27.0423 12.0794 27.3893 12.2029 27.6875C12.4736 28.3409 12.9927 28.8601 13.646 29.1307C14.1362 29.3337 14.7574 29.3337 15.9999 29.3337C17.2424 29.3337 17.8636 29.3337 18.3538 29.1307C19.0071 28.8601 19.5263 28.3409 19.797 27.6875C19.9204 27.3893 19.9688 27.0423 19.9878 26.5365C20.0155 25.7927 20.3968 25.1045 21.0414 24.7323C21.6858 24.3603 22.4726 24.3742 23.1304 24.7219C23.5782 24.9585 23.9027 25.0901 24.2227 25.1322C24.9239 25.2246 25.6331 25.0345 26.1942 24.6039C26.615 24.2811 26.9256 23.743 27.547 22.667C27.8235 22.1879 28.0386 21.8155 28.198 21.5033M27.1182 17.8147C26.4882 17.4189 26.0828 16.7445 26.0827 16.0005C26.0827 15.2563 26.4882 14.5818 27.1182 14.1859C27.547 13.9166 27.8231 13.7013 28.0196 13.4451C28.4502 12.884 28.6402 12.1749 28.5479 11.4737C28.4787 10.9478 28.168 10.4098 27.5467 9.33373C26.9255 8.25767 26.6148 7.71966 26.194 7.39675C25.633 6.96621 24.9238 6.77619 24.2226 6.8685C23.9026 6.91065 23.578 7.04219 23.1304 7.27877C22.4724 7.62651 21.6856 7.64038 21.0412 7.26827C20.3968 6.89619 20.0155 6.20793 19.9878 5.46437C19.9688 4.95835 19.9204 4.61146 19.797 4.31317C19.5263 3.65977 19.0071 3.14063 18.3538 2.86998C17.8636 2.66699 17.2424 2.66699 15.9999 2.66699C14.7574 2.66699 14.1362 2.66699 13.646 2.86998C12.9927 3.14063 12.4736 3.65977 12.2029 4.31317C12.0794 4.61143 12.031 4.9583 12.0121 5.46425C11.9843 6.20787 11.6029 6.89621 10.9585 7.26827C10.314 7.64035 9.52722 7.62644 8.86931 7.27873C8.42169 7.04214 8.09711 6.91058 7.77705 6.86843C7.07585 6.77613 6.3667 6.96614 5.80561 7.39669C5.38479 7.71959 5.07417 8.25762 4.4529 9.33366C4.17633 9.81271 3.96132 10.1851 3.80176 10.4973" stroke="#0C031B" stroke-width="2" stroke-linecap="round"/>
</svg>
